
<svg xmlns="http://www.w3.org/2000/svg" viewBox="0 0 24 24" fill="none">
  <path d="M10.204 14.35l.007.01-.318.236a.375.375 0 00-.001.598l3.395 2.518a.373.373 0 00.436.001l5.686-4.217a.374.374 0 00.001-.598l-4.832-3.575a.373.373 0 00-.432-.002l-.773.57c-.006.01-.09.828-.049.846a.809.809 0 01-.215.018 5.954 5.954 0 01-.31.014 6.106 6.106 0 00-2.605 3.58zm10.948-2.65h-2.764c.116.495.175 1.005.175 1.517a7.504 7.504 0 01-7.722 7.459c-4.309 0-7.722-3.333-7.722-7.46 0-.512.059-1.022.175-1.516H.53v9.579c0 .423.158.83.44 1.116.282.286.666.465 1.09.465h17.566c.424 0 .809-.18 1.09-.465a1.56 1.56 0 00.44-1.116l-.003-9.58zm-12.75 1.517c0 2.65 2.171 4.822 4.822 4.822 2.65 0 4.821-2.171 4.821-4.822 0-2.65-2.17-4.822-4.821-4.822-2.65 0-4.821 2.171-4.821 4.822zM19.256.465A1.56 1.56 0 0018.166 0H5.834a1.56 1.56 0 00-1.09.465 1.56 1.56 0 00-.44 1.116v9.58h2.764a7.812 7.812 0 015.023-5.024V2.175h4.822v3.961a7.811 7.811 0 015.023 5.023h2.763v-9.58a1.56 1.56 0 00-.443-1.114z" fill="#326ce5"/>
</svg>
